<svg width="45" height="40" viewBox="0 0 45 40" fill="none" xmlns="http://www.w3.org/2000/svg">
<path d="M33.75 30.1622C35.3063 30.1622 36.5625 29.0754 36.5625 27.7289C36.5625 26.3825 35.3063 25.2957 33.75 25.2957C32.1938 25.2957 30.9375 26.3825 30.9375 27.7289C30.9375 29.0754 32.1938 30.1622 33.75 30.1622ZM36.5625 15.5626H31.875V19.618H40.2375L36.5625 15.5626ZM11.25 30.1622C12.8062 30.1622 14.0625 29.0754 14.0625 27.7289C14.0625 26.3825 12.8062 25.2957 11.25 25.2957C9.69375 25.2957 8.4375 26.3825 8.4375 27.7289C8.4375 29.0754 9.69375 30.1622 11.25 30.1622ZM37.5 13.1293L43.125 19.618V27.7289H39.375C39.375 30.4218 36.8625 32.5955 33.75 32.5955C30.6375 32.5955 28.125 30.4218 28.125 27.7289H16.875C16.875 30.4218 14.3625 32.5955 11.25 32.5955C8.1375 32.5955 5.625 30.4218 5.625 27.7289H1.875V9.88495C1.875 8.08432 3.54375 6.64058 5.625 6.64058H31.875V13.1293H37.5ZM5.625 9.88495V24.4846H7.05C8.08125 23.4951 9.58125 22.8624 11.25 22.8624C12.9187 22.8624 14.4187 23.4951 15.45 24.4846H28.125V9.88495H5.625ZM18.75 11.5071L25.3125 17.1848L18.75 22.8624V18.8069H9.375V15.5626H18.75V11.5071Z" fill="white"/>
</svg>
