<svg width="76" height="81" viewBox="0 0 76 81" fill="none" xmlns="http://www.w3.org/2000/svg">
<path d="M30.286 29.4639L31.9168 35.7516C33.4527 41.6747 34.219 44.6379 36.4768 45.9846C38.7347 47.3346 41.6005 46.5381 47.3322 44.9518L53.4122 43.2643C59.1438 41.6781 62.0097 40.8849 63.3143 38.5528C64.619 36.2173 63.8527 33.254 62.3137 27.3309L60.686 21.0467C59.1502 15.1202 58.3807 12.1569 56.126 10.8103C53.865 9.4603 50.9992 10.2568 45.2675 11.8464L39.1875 13.5272C33.4558 15.1134 30.59 15.9099 29.2885 18.2454C27.9838 20.5776 28.7502 23.5408 30.286 29.4639Z" fill="black"/>
<path d="M7.2105 17.7086C7.29393 17.3881 7.43582 17.0882 7.62807 16.8262C7.82031 16.5641 8.05913 16.345 8.33088 16.1814C8.60263 16.0178 8.90197 15.9128 9.21179 15.8726C9.52161 15.8324 9.83584 15.8576 10.1365 15.9469L15.5293 17.5399C16.9586 17.9536 18.2629 18.7549 19.3151 19.8657C20.3673 20.9765 21.1316 22.3589 21.5333 23.8781L28.3448 50.1559L28.8452 51.9986C30.8497 52.7985 32.5723 54.2936 33.6648 56.2781L34.6465 55.9541L62.7348 48.1748C63.0368 48.091 63.3512 48.0714 63.6602 48.1172C63.9692 48.1629 64.2667 48.2731 64.5358 48.4414C64.8048 48.6097 65.0402 48.8328 65.2283 49.098C65.4165 49.3632 65.5537 49.6654 65.6323 49.9871C65.7109 50.3089 65.7293 50.644 65.6864 50.9734C65.6434 51.3027 65.5401 51.6198 65.3822 51.9065C65.2243 52.1933 65.0149 52.4441 64.7661 52.6446C64.5172 52.8452 64.2337 52.9915 63.9318 53.0753L35.9448 60.8242L34.9062 61.1685C34.884 65.4548 32.1068 69.3731 27.9078 70.5375C22.8697 71.9347 17.6922 68.8433 16.3432 63.639C14.9942 58.4314 17.9835 53.0786 23.0185 51.6848C23.2666 51.6166 23.5169 51.5581 23.769 51.5093L16.9543 25.2247C16.7709 24.5495 16.4266 23.9363 15.9549 23.4448C15.4832 22.9533 14.9003 22.6003 14.2627 22.4201L8.86667 20.8237C8.56597 20.7352 8.2846 20.5843 8.03862 20.3798C7.79264 20.1753 7.58687 19.9211 7.43307 19.6319C7.27927 19.3426 7.18046 19.0238 7.14227 18.6938C7.10408 18.3638 7.12726 18.0291 7.2105 17.7086Z" fill="black"/>
</svg>
