<svg width="67" height="67" viewBox="0 0 67 67" fill="none" xmlns="http://www.w3.org/2000/svg">
<g id="mingcute:shield-line" clip-path="url(#clip0_66_90)">
<g id="Group">
<path id="Vector" d="M35.6291 0.389272L56.8596 8.4195C58.016 8.85675 59.0126 9.63965 59.7161 10.6635C60.4196 11.6874 60.7965 12.9035 60.7963 14.1493V30.5554C60.7964 35.6685 59.3849 40.6806 56.7198 45.0302C54.0548 49.3797 50.2416 52.8947 45.7075 55.1814L35.5351 60.3116C34.9032 60.6303 34.2065 60.7963 33.5 60.7963C32.7935 60.7963 32.0968 60.6303 31.4649 60.3116L21.2925 55.1814C16.7584 52.8947 12.9452 49.3797 10.2802 45.0302C7.61514 40.6806 6.2036 35.6685 6.2037 30.5554V14.1493C6.20355 12.9035 6.58041 11.6874 7.28389 10.6635C7.98737 9.63965 8.98396 8.85675 10.1404 8.4195L31.3709 0.389272C32.7437 -0.129757 34.2563 -0.129757 35.6291 0.389272ZM33.5 6.11903L12.2695 14.1493V30.5554C12.2702 34.5319 13.3687 38.4296 15.4417 41.8119C17.5148 45.1942 20.4806 47.9275 24.007 49.7056L33.5 54.4992L42.993 49.7117C46.5203 47.9332 49.4867 45.1989 51.5599 41.8154C53.633 38.4319 54.7309 34.5329 54.7305 30.5554V14.1493L33.5 6.11903ZM33.5 18.1475C34.3044 18.1475 35.0758 18.4698 35.6446 19.0435C36.2134 19.6172 36.5329 20.3953 36.5329 21.2067V27.3249H42.5988C43.4031 27.3249 44.1746 27.6472 44.7434 28.2209C45.3122 28.7946 45.6317 29.5727 45.6317 30.3841C45.6317 31.1954 45.3122 31.9735 44.7434 32.5472C44.1746 33.1209 43.4031 33.4432 42.5988 33.4432H36.5329V39.5615C36.5329 40.3728 36.2134 41.1509 35.6446 41.7246C35.0758 42.2983 34.3044 42.6206 33.5 42.6206C32.6956 42.6206 31.9242 42.2983 31.3554 41.7246C30.7866 41.1509 30.4671 40.3728 30.4671 39.5615V33.4432H24.4012C23.5969 33.4432 22.8254 33.1209 22.2566 32.5472C21.6879 31.9735 21.3683 31.1954 21.3683 30.3841C21.3683 29.5727 21.6879 28.7946 22.2566 28.2209C22.8254 27.6472 23.5969 27.3249 24.4012 27.3249H30.4671V21.2067C30.4671 20.3953 30.7866 19.6172 31.3554 19.0435C31.9242 18.4698 32.6956 18.1475 33.5 18.1475Z" fill="#080808"/>
</g>
</g>
<defs>
<clipPath id="clip0_66_90">
<rect width="67" height="67" fill="white"/>
</clipPath>
</defs>
</svg>
