<svg width="86" height="69" viewBox="0 0 86 69" fill="none" xmlns="http://www.w3.org/2000/svg">
<path d="M43.4569 11.482L30.4494 22.0477C28.2859 23.7996 27.8694 26.9531 29.5088 29.2037C31.2422 31.6025 34.615 32.0742 36.9397 30.2549L50.2831 19.851C51.2238 19.1232 52.5675 19.285 53.3066 20.2283C54.0456 21.1717 53.8709 22.5193 52.9303 23.2605L50.1219 25.4438L68.8 42.6937V17.25H68.7059L68.1819 16.9131L58.4263 10.6465C56.3703 9.32578 53.965 8.625 51.5194 8.625C48.59 8.625 45.7413 9.63574 43.4569 11.482ZM46.5206 28.2469L39.5734 33.6645C35.3406 36.9797 29.1997 36.1172 26.0284 31.7508C23.0453 27.6404 23.7978 21.8994 27.735 18.7055L38.915 9.63574C37.3563 8.97539 35.6766 8.63848 33.97 8.63848C31.4438 8.625 28.9847 9.37969 26.875 10.7812L17.2 17.25V47.4375H20.9894L33.2713 58.677C35.905 61.0893 39.9766 60.9006 42.3819 58.2592C43.1209 57.4371 43.6181 56.4803 43.8734 55.483L46.1578 57.5854C48.7781 59.9977 52.8631 59.8225 55.2684 57.1945C55.8731 56.5342 56.3166 55.766 56.5988 54.9709C59.2056 56.7229 62.7531 56.359 64.9434 53.9602C67.3488 51.3322 67.1741 47.2354 64.5537 44.823L46.5206 28.2469ZM2.15 17.25C0.9675 17.25 0 18.2203 0 19.4062V47.4375C0 49.8229 1.92156 51.75 4.3 51.75H8.6C10.9784 51.75 12.9 49.8229 12.9 47.4375V17.25H2.15ZM6.45 43.125C7.02022 43.125 7.56708 43.3522 7.97028 43.7565C8.37348 44.1609 8.6 44.7094 8.6 45.2812C8.6 45.8531 8.37348 46.4016 7.97028 46.806C7.56708 47.2103 7.02022 47.4375 6.45 47.4375C5.87978 47.4375 5.33292 47.2103 4.92972 46.806C4.52652 46.4016 4.3 45.8531 4.3 45.2812C4.3 44.7094 4.52652 44.1609 4.92972 43.7565C5.33292 43.3522 5.87978 43.125 6.45 43.125ZM73.1 17.25V47.4375C73.1 49.8229 75.0216 51.75 77.4 51.75H81.7C84.0784 51.75 86 49.8229 86 47.4375V19.4062C86 18.2203 85.0325 17.25 83.85 17.25H73.1ZM77.4 45.2812C77.4 44.7094 77.6265 44.1609 78.0297 43.7565C78.4329 43.3522 78.9798 43.125 79.55 43.125C80.1202 43.125 80.6671 43.3522 81.0703 43.7565C81.4735 44.1609 81.7 44.7094 81.7 45.2812C81.7 45.8531 81.4735 46.4016 81.0703 46.806C80.6671 47.2103 80.1202 47.4375 79.55 47.4375C78.9798 47.4375 78.4329 47.2103 78.0297 46.806C77.6265 46.4016 77.4 45.8531 77.4 45.2812Z" fill="black"/>
</svg>
