<svg width="55" height="48" viewBox="0 0 55 48" fill="none" xmlns="http://www.w3.org/2000/svg">
<g id="bx:layer">
<path id="Vector" d="M50.4167 15.998C50.4162 15.641 50.3063 15.2907 50.0984 14.9833C49.8905 14.676 49.5921 14.4227 49.2342 14.25L28.5587 4.24999C28.219 4.08664 27.8374 4.00098 27.4496 4.00098C27.0617 4.00098 26.6801 4.08664 26.3404 4.24999L5.76582 14.17C5.4084 14.3427 5.11039 14.5957 4.90265 14.9027C4.69491 15.2097 4.58499 15.5597 4.58429 15.9162C4.58359 16.2728 4.69213 16.623 4.89866 16.9307C5.10519 17.2383 5.4022 17.4922 5.75895 17.666L26.4344 27.746C26.7747 27.9129 27.1585 28.0007 27.549 28.0011C27.9394 28.0014 28.3234 27.9143 28.6642 27.748L49.2387 17.748C49.5961 17.5745 49.8938 17.3208 50.1009 17.0131C50.3081 16.7054 50.4171 16.3549 50.4167 15.998ZM27.5527 23.708L11.5958 15.93L27.4473 8.28599L43.4064 16.004L27.5527 23.708Z" fill="black"/>
<path id="Vector_2" d="M47.0135 22.252L27.5 31.712L7.98644 22.252L5.76123 25.748L26.3862 35.748C26.7266 35.9129 27.1095 35.9995 27.4988 35.9995C27.8882 35.9995 28.2711 35.9129 28.6114 35.748L49.2364 25.748L47.0135 22.252Z" fill="black"/>
<path id="Vector_3" d="M47.0135 30.252L27.5 39.712L7.98644 30.252L5.76123 33.748L26.3862 43.748C26.7266 43.9129 27.1095 43.9995 27.4988 43.9995C27.8882 43.9995 28.2711 43.9129 28.6114 43.748L49.2364 33.748L47.0135 30.252Z" fill="black"/>
</g>
</svg>
