<svg width="67" height="61" viewBox="0 0 67 61" fill="none" xmlns="http://www.w3.org/2000/svg">
<g id="mingcute:paper-line" clip-path="url(#clip0_66_86)">
<g id="Group">
<path id="Vector" d="M47.7368 1.25096e-08C50.0728 -0.000114406 52.3204 0.784662 54.02 2.19376C55.7195 3.60286 56.7424 5.52976 56.8795 7.58021L56.8947 8.05263V34.8947H59.1842C61.1593 34.8947 62.7863 36.2154 62.9817 37.9064L63 38.25V42.9474C63.0001 45.0014 62.1076 46.9777 60.5051 48.4722C58.9026 49.9666 56.7113 50.8661 54.3794 50.9866L53.8421 51H23.3158C20.9799 51.0001 18.7322 50.2153 17.0327 48.8062C15.3331 47.3971 14.3102 45.4702 14.1732 43.4198L14.1579 42.9474V16.1053H8.81579C7.87113 16.1056 6.95989 15.7979 6.2584 15.2416C5.55691 14.6852 5.11505 13.9199 5.01832 13.0936L5 12.75V8.05263C4.99987 5.99864 5.89236 4.02225 7.49487 2.52783C9.09737 1.0334 11.2887 0.133922 13.6206 0.0134214L14.1579 1.25096e-08H47.7368ZM47.7368 5.36842H20.2632V42.9474C20.2632 43.6593 20.5848 44.342 21.1573 44.8454C21.7297 45.3488 22.5062 45.6316 23.3158 45.6316C24.1254 45.6316 24.9018 45.3488 25.4743 44.8454C26.0468 44.342 26.3684 43.6593 26.3684 42.9474V38.25C26.3684 36.3979 28.0779 34.8947 30.1842 34.8947H50.7895V8.05263C50.7895 7.34073 50.4679 6.658 49.8954 6.15461C49.3229 5.65122 48.5465 5.36842 47.7368 5.36842ZM56.8947 40.2632H32.4737V42.9474C32.4737 43.8868 32.2905 44.7914 31.9547 45.6316H53.8421C54.6517 45.6316 55.4282 45.3488 56.0006 44.8454C56.5731 44.342 56.8947 43.6593 56.8947 42.9474V40.2632ZM35.5263 24.1579C36.3359 24.1579 37.1124 24.4407 37.6849 24.9441C38.2573 25.4475 38.5789 26.1302 38.5789 26.8421C38.5789 27.554 38.2573 28.2367 37.6849 28.7401C37.1124 29.2435 36.3359 29.5263 35.5263 29.5263H29.4211C28.6114 29.5263 27.835 29.2435 27.2625 28.7401C26.69 28.2367 26.3684 27.554 26.3684 26.8421C26.3684 26.1302 26.69 25.4475 27.2625 24.9441C27.835 24.4407 28.6114 24.1579 29.4211 24.1579H35.5263ZM41.6316 13.4211C42.4412 13.4211 43.2176 13.7039 43.7901 14.2072C44.3626 14.7106 44.6842 15.3934 44.6842 16.1053C44.6842 16.8172 44.3626 17.4999 43.7901 18.0033C43.2176 18.5067 42.4412 18.7895 41.6316 18.7895H29.4211C28.6114 18.7895 27.835 18.5067 27.2625 18.0033C26.69 17.4999 26.3684 16.8172 26.3684 16.1053C26.3684 15.3934 26.69 14.7106 27.2625 14.2072C27.835 13.7039 28.6114 13.4211 29.4211 13.4211H41.6316ZM14.1579 5.36842C13.4102 5.36851 12.6885 5.60988 12.1298 6.04676C11.5711 6.48364 11.2141 7.08564 11.1266 7.73858L11.1053 8.05263V10.7368H14.1579V5.36842Z" fill="#080808"/>
</g>
</g>
<defs>
<clipPath id="clip0_66_86">
<rect width="67" height="61" fill="white"/>
</clipPath>
</defs>
</svg>
