<svg width="76" height="79" viewBox="0 0 76 79" fill="none" xmlns="http://www.w3.org/2000/svg">
<path d="M37.8003 12.4087C31.2552 12.4087 25.9494 18.8478 25.9494 26.791C25.9494 32.2998 28.5015 37.0841 32.249 39.4999L27.9033 41.5935L16.3387 47.1688C15.2215 47.7495 14.6639 48.7341 14.6639 50.1278V63.367C14.7558 65.0222 15.7112 66.565 17.2603 66.5911H58.4029C60.1714 66.4313 61.0661 64.9505 61.0835 63.367V50.1278C61.0835 48.7341 60.5259 47.7495 59.4088 47.1688L48.2628 41.5935L43.6308 39.3123C47.2246 36.8422 49.6513 32.1613 49.6513 26.791C49.6512 18.8478 44.3454 12.4087 37.8003 12.4087ZM18.6848 17.4663C15.8682 17.5775 13.6359 18.8444 11.94 20.863C10.064 23.2934 9.14951 26.179 9.13184 29.0496C9.24705 33.2944 11.0742 37.3129 14.327 39.4148L1.34032 45.688C0.4465 46.0364 0 46.8493 0 48.1268V58.7521C0.0697933 60.1613 0.77368 61.3456 2.09348 61.3659H10.7248V50.1278C10.8676 47.1232 12.225 44.6946 14.6639 43.5095L23.2929 39.2424C23.9632 38.8358 24.6058 38.2833 25.2203 37.5865C21.6625 31.8803 21.1684 25.0459 23.4613 19.0346C21.97 18.0859 20.294 17.4762 18.6848 17.4663ZM57.2286 17.4663C55.3866 17.5064 53.6844 18.2114 52.2861 19.2072C54.5165 25.2729 53.9013 32.1116 50.6089 37.4114C51.3352 38.2824 52.0912 38.9504 52.8733 39.415L61.1677 43.5095C63.6945 44.95 64.9975 47.4001 65.0226 50.1278V61.366H73.9041C75.3648 61.235 75.9873 60.0239 76 58.7522V48.1268C76 46.9655 75.5535 46.1527 74.6597 45.688L61.839 39.3273C65.1639 36.7791 66.8335 32.9599 66.8658 29.0496C66.7773 25.9547 65.8678 23.0809 64.0576 20.863C62.1661 18.7301 59.82 17.4889 57.2286 17.4663Z" fill="black"/>
</svg>
