<svg width="28" height="28" viewBox="0 0 28 28" fill="none" xmlns="http://www.w3.org/2000/svg">
<g id="gg:phone">
<g id="Group">
<path id="Vector" d="M25.6667 14C25.6661 10.906 24.4367 7.9389 22.2489 5.75111C20.0611 3.56332 17.094 2.33396 14 2.33334V4.66668C15.8458 4.6671 17.65 5.21458 19.1848 6.23997C20.7195 7.26536 21.9159 8.72263 22.6228 10.4277C23.092 11.5602 23.3334 12.7741 23.3333 14H25.6667ZM2.33334 11.6667V5.83334C2.33334 5.52392 2.45626 5.22718 2.67505 5.00839C2.89384 4.78959 3.19059 4.66668 3.50001 4.66668H9.33334C9.64276 4.66668 9.93951 4.78959 10.1583 5.00839C10.3771 5.22718 10.5 5.52392 10.5 5.83334V10.5C10.5 10.8094 10.3771 11.1062 10.1583 11.325C9.93951 11.5438 9.64276 11.6667 9.33334 11.6667H7.00001C7.00001 14.142 7.98334 16.516 9.73368 18.2663C11.484 20.0167 13.858 21 16.3333 21V18.6667C16.3333 18.3573 16.4563 18.0605 16.6751 17.8417C16.8938 17.6229 17.1906 17.5 17.5 17.5H22.1667C22.4761 17.5 22.7728 17.6229 22.9916 17.8417C23.2104 18.0605 23.3333 18.3573 23.3333 18.6667V24.5C23.3333 24.8094 23.2104 25.1062 22.9916 25.325C22.7728 25.5438 22.4761 25.6667 22.1667 25.6667H16.3333C8.60184 25.6667 2.33334 19.3982 2.33334 11.6667Z" fill="white"/>
<path id="Vector_2" d="M20.4668 11.3213C20.819 12.1705 21.0002 13.0807 21 14H18.9C18.9002 13.3565 18.7735 12.7192 18.5273 12.1247C18.2811 11.5301 17.9202 10.9899 17.4652 10.5348C17.0101 10.0798 16.4699 9.71887 15.8753 9.47268C15.2808 9.22648 14.6435 9.09985 14 9.1V7C15.3844 7.00007 16.7377 7.41066 17.8888 8.17985C19.0399 8.94904 19.9371 10.0423 20.4668 11.3213Z" fill="white"/>
</g>
</g>
</svg>
