<svg width="45" height="40" viewBox="0 0 45 40" fill="none" xmlns="http://www.w3.org/2000/svg">
<path d="M15.4688 19.6808V17.2476C15.4688 16.9249 15.6169 16.6154 15.8806 16.3873C16.1444 16.1591 16.502 16.0309 16.875 16.0309C17.248 16.0309 17.6056 16.1591 17.8694 16.3873C18.1331 16.6154 18.2812 16.9249 18.2812 17.2476V19.6808C18.2812 20.0035 18.1331 20.313 17.8694 20.5411C17.6056 20.7693 17.248 20.8975 16.875 20.8975C16.502 20.8975 16.1444 20.7693 15.8806 20.5411C15.6169 20.313 15.4688 20.0035 15.4688 19.6808ZM22.5 20.8975C22.873 20.8975 23.2306 20.7693 23.4944 20.5411C23.7581 20.313 23.9062 20.0035 23.9062 19.6808V16.0309C23.9062 15.7083 23.7581 15.3988 23.4944 15.1706C23.2306 14.9425 22.873 14.8143 22.5 14.8143C22.127 14.8143 21.7694 14.9425 21.5056 15.1706C21.2419 15.3988 21.0938 15.7083 21.0938 16.0309V19.6808C21.0938 20.0035 21.2419 20.313 21.5056 20.5411C21.7694 20.7693 22.127 20.8975 22.5 20.8975ZM28.125 20.8975C28.498 20.8975 28.8556 20.7693 29.1194 20.5411C29.3831 20.313 29.5312 20.0035 29.5312 19.6808V14.8143C29.5312 14.4916 29.3831 14.1822 29.1194 13.954C28.8556 13.7258 28.498 13.5977 28.125 13.5977C27.752 13.5977 27.3944 13.7258 27.1306 13.954C26.8669 14.1822 26.7188 14.4916 26.7188 14.8143V19.6808C26.7188 20.0035 26.8669 20.313 27.1306 20.5411C27.3944 20.7693 27.752 20.8975 28.125 20.8975ZM37.9688 9.94775V24.5474H39.375C39.748 24.5474 40.1056 24.6756 40.3694 24.9037C40.6331 25.1319 40.7812 25.4414 40.7812 25.764C40.7812 26.0867 40.6331 26.3962 40.3694 26.6243C40.1056 26.8525 39.748 26.9807 39.375 26.9807H23.9062V29.6238C24.8445 29.9108 25.6353 30.4755 26.1389 31.2182C26.6424 31.9608 26.8263 32.8336 26.658 33.6822C26.4897 34.5308 25.9801 35.3006 25.2192 35.8555C24.4583 36.4105 23.4952 36.7149 22.5 36.7149C21.5048 36.7149 20.5417 36.4105 19.7808 35.8555C19.0199 35.3006 18.5103 34.5308 18.342 33.6822C18.1737 32.8336 18.3576 31.9608 18.8611 31.2182C19.3647 30.4755 20.1555 29.9108 21.0938 29.6238V26.9807H5.625C5.25204 26.9807 4.89435 26.8525 4.63063 26.6243C4.36691 26.3962 4.21875 26.0867 4.21875 25.764C4.21875 25.4414 4.36691 25.1319 4.63063 24.9037C4.89435 24.6756 5.25204 24.5474 5.625 24.5474H7.03125V9.94775C6.28533 9.94775 5.56996 9.69139 5.04251 9.23506C4.51507 8.77874 4.21875 8.15982 4.21875 7.51448V5.08121C4.21875 4.43586 4.51507 3.81695 5.04251 3.36062C5.56996 2.9043 6.28533 2.64793 7.03125 2.64793H37.9688C38.7147 2.64793 39.43 2.9043 39.9575 3.36062C40.4849 3.81695 40.7812 4.43586 40.7812 5.08121V7.51448C40.7812 8.15982 40.4849 8.77874 39.9575 9.23506C39.43 9.69139 38.7147 9.94775 37.9688 9.94775ZM23.9062 33.0638C23.9062 32.8232 23.8238 32.588 23.6693 32.3879C23.5147 32.1878 23.2951 32.0319 23.0381 31.9398C22.7812 31.8477 22.4984 31.8236 22.2257 31.8706C21.9529 31.9175 21.7023 32.0334 21.5056 32.2035C21.309 32.3737 21.175 32.5905 21.1208 32.8265C21.0665 33.0625 21.0944 33.3071 21.2008 33.5294C21.3072 33.7517 21.4875 33.9418 21.7187 34.0754C21.95 34.2091 22.2219 34.2805 22.5 34.2805C22.873 34.2805 23.2306 34.1523 23.4944 33.9241C23.7581 33.696 23.9062 33.3865 23.9062 33.0638ZM7.03125 7.51448H37.9688V5.08121H7.03125V7.51448ZM35.1562 9.94775H9.84375V24.5474H35.1562V9.94775Z" fill="white"/>
</svg>
