<svg width="79" height="87" viewBox="0 0 79 87" fill="none" xmlns="http://www.w3.org/2000/svg">
<path d="M37.0312 7.51486C35.0365 7.92448 32.6928 8.80898 29.0918 10.1684L27.2056 10.8752C17.3076 14.609 12.3602 16.4722 11.1193 18.4225C9.90133 20.3292 9.875 25.919 9.875 37.0115L37.0312 27.0427V7.51486ZM37.0312 32.7702L9.875 42.739V43.4676C9.875 63.9054 23.8284 73.8234 32.5842 78.0356C34.263 78.844 35.3492 79.366 37.0312 79.6016V32.7702ZM41.9688 79.6052V32.7702L69.125 42.739V43.4676C69.125 63.9054 55.1716 73.8234 46.4158 78.0356C44.737 78.844 43.6508 79.3696 41.9688 79.6052ZM41.9688 27.0427V7.51123C43.9635 7.92086 46.3072 8.80536 49.9082 10.1647L51.7944 10.8752C61.6924 14.6054 66.6398 16.4686 67.8807 18.4189C69.0987 20.3256 69.125 25.9154 69.125 37.0042L41.9688 27.0355V27.0427Z" fill="black"/>
</svg>
