<svg width="45" height="40" viewBox="0 0 45 40" fill="none" xmlns="http://www.w3.org/2000/svg">
<path d="M16.95 5C20.3846 5 23.6784 6.33671 26.107 8.71608C28.5356 11.0955 29.9 14.3226 29.9 17.6875H31.75V23.125H29.9V30.375H16.95C13.5154 30.375 10.2216 29.0383 7.79297 26.6589C5.36437 24.2795 4 21.0524 4 17.6875C4 14.3226 5.36437 11.0955 7.79297 8.71608C10.2216 6.33671 13.5154 5 16.95 5ZM16.95 10.4375C14.9874 10.4375 13.1052 11.2013 11.7174 12.561C10.3296 13.9206 9.55 15.7647 9.55 17.6875C9.55 19.6103 10.3296 21.4544 11.7174 22.814C13.1052 24.1737 14.9874 24.9375 16.95 24.9375C18.9126 24.9375 20.7948 24.1737 22.1826 22.814C23.5704 21.4544 24.35 19.6103 24.35 17.6875C24.35 15.7647 23.5704 13.9206 22.1826 12.561C20.7948 11.2013 18.9126 10.4375 16.95 10.4375ZM31.75 26.75H41V34H37.3V30.375H31.75V26.75Z" fill="white"/>
</svg>
